<svg id="Capa_1" enable-background="new 0 0 512 512" height="512" viewBox="0 0 512 512" width="512" xmlns="http://www.w3.org/2000/svg"><g><path d="m448.485 32.011c-38.964-6.339-75.681 17.905-85.187 55.642-70.533-15.159-144.063-15.159-214.596 0-9.493-37.686-46.166-61.989-85.187-55.642-36.209 5.89-63.515 39.076-63.515 77.195 0 47.833 22.791 94.002 61.161 124.335 1.68 40.711 16.699 72.766 31.257 103.821 14.699 31.354 28.582 60.969 28.582 98.633 0 8.284 6.716 15 15 15h3.209c1.597 0 3.176-.071 4.747-.174 10.539 18.268 30.344 30.174 52.044 30.174 17.082 0 29.52-10.204 39.514-18.403 7.585-6.223 14.136-11.597 20.486-11.597s12.901 5.374 20.486 11.597c9.994 8.199 22.432 18.403 39.514 18.403 21.7 0 41.506-11.906 52.044-30.174 1.571.103 3.15.174 4.747.174h3.209c8.284 0 15-6.716 15-15 0-37.664 13.883-67.279 28.582-98.633 14.558-31.055 29.577-63.11 31.257-103.821 38.369-30.333 61.161-76.502 61.161-124.335 0-38.119-27.306-71.305-63.515-77.195zm-418.485 77.195c0-23.186 16.837-44.087 38.332-47.584 27.546-4.48 50.683 15.614 52.535 41.099l-49.862 99.723c-25.898-24.418-41.005-58.313-41.005-93.238zm123.101 309.408c-.695-.014-1.397.037-2.101.123v-72.741c0-41.483 24.183-77.421 59.19-94.466l30.81 39.612v11.342c-35.427 7.126-60 40.388-60 76.721 0 18.174-11.665 33.669-27.899 39.409zm101.962-158.256-14.208-18.267c4.947-.718 10.002-1.096 15.144-1.096 3.902 0 7.754.221 11.547.638zm25.816 78.132c-7.282 4.845-15.878 7.505-24.879 7.505-8.892 0-17.411-2.609-24.652-7.361 7.064-4.971 15.14-7.616 24.587-7.642.022 0 .043.003.065.003.008 0 .017-.001.025-.001 8.942-.007 17.471 2.562 24.854 7.496zm35.121 112.505c-6.35 0-12.901-5.374-20.486-11.597-9.994-8.199-22.432-18.403-39.514-18.403s-29.52 10.204-39.514 18.403c-7.585 6.223-14.136 11.597-20.486 11.597-8.318 0-16.079-3.497-21.623-9.24 21.837-12.326 36.623-35.738 36.623-62.551 0-5.684.935-11.18 2.637-16.303 12.332 8.457 27.02 13.094 42.363 13.094 15.605 0 30.49-4.771 42.925-13.471 1.352 4.312 2.075 8.845 2.075 13.471v3.209c0 26.813 14.786 50.225 36.623 62.551-5.544 5.743-13.305 9.24-21.623 9.24zm45-32.259c-.703-.086-1.405-.137-2.1-.123-16.234-5.739-27.9-21.235-27.9-39.41v-3.209c0-35.001-24.464-66.21-60-73.444v-12.014l27.137-40.705c36.976 16.266 62.863 53.246 62.863 96.164zm31.418-94.108c-.799 1.704-1.599 3.413-2.399 5.124-8.075-67.042-65.329-118.757-134.019-118.757-68.938 0-125.972 51.954-134.02 118.757-.799-1.712-1.6-3.42-2.399-5.124-14.245-30.387-27.724-59.141-28.542-95.171l55.262-110.524c71.924-16.88 147.473-16.88 219.396 0l55.262 110.524c-.817 36.029-14.296 64.784-28.541 95.171zm48.577-122.184-49.862-99.723c1.849-25.445 24.953-45.585 52.535-41.099 21.495 3.496 38.332 24.397 38.332 47.584 0 34.925-15.107 68.821-41.005 93.238z"/><circle cx="136" cy="225.995" r="15"/><circle cx="376" cy="225.995" r="15"/></g></svg>