<svg id="Capa_1" enable-background="new 0 0 512.003 512.003" height="512" viewBox="0 0 512.003 512.003" width="512" xmlns="http://www.w3.org/2000/svg"><g><circle cx="166.002" cy="181.014" r="15"/><ellipse cx="347.002" cy="181.014" rx="15" ry="15" transform="matrix(.383 -.924 .924 .383 46.975 432.331)"/><path d="m479.297 90.478c-13.559-23.485-28.048-37.342-44.295-42.364-14.168-4.38-28.942-1.955-45.167 7.412-12.073 6.97-20.408 15.169-25.243 24.866-3.131-.87-6.29-1.61-9.468-2.206-35.672-6.697-71.74 2.288-99.119 24.16-27.23-21.782-62.934-30.767-98.126-24.161-3.178.597-6.338 1.336-9.469 2.206-4.835-9.696-13.171-17.896-25.243-24.865-16.233-9.373-31.143-11.805-45.58-7.439-16.637 5.034-31.318 18.9-44.88 42.391-22.802 39.493-51.81 125.972-15.539 146.914 13.859 8.002 29.951 2.786 43.751-5.276-1.174 12.703-3.9 23.268-8.342 32.641-13.594 28.681-20.835 59.408-21.522 91.326-.003.161-.004.322-.002.482.459 43.128 34.593 78.007 77.708 79.405 13.099.425 25.711-5.175 34.687-14.315 30.395 28.394 70.404 44.359 112.553 44.359 40.645 0 81.381-14.881 113.045-43.964 8.216 8.611 19.735 13.912 32.224 13.962h.335c44.717 0 79.821-35.987 80.388-79.334.002-.178.001-.356-.002-.534-.721-31.97-7.977-62.718-21.565-91.388-4.389-9.259-7.102-19.682-8.299-32.179 13.562 7.837 29.153 12.641 42.708 4.814 36.271-20.94 7.263-107.419-15.538-146.913zm-447.076 120.839c-1.484-2.302-4.6-13.45 1.05-39.43 4.817-22.152 14.556-47.598 25.416-66.409 9.304-16.115 18.843-26.031 27.587-28.675 3.872-1.171 10.354-1.958 21.894 4.704 18.29 10.559 21.421 22.898 3.481 53.971-10.806 18.716-28.143 39.867-45.246 55.199-20.025 17.952-31.397 20.794-34.182 20.64zm223.781 224.697c-37.8 0-73.505-15.688-99.048-43.273l6.106-30.533c8.888-44.436 47.836-76.186 92.942-76.188 48.656-.003 85.945 36.203 94.758 80.268l5.288 26.439c-25.368 27.22-62.239 43.287-100.046 43.287zm-14.998-194.743c2.831-.341 7.538-.304 10.914-.278 2.673.021 5.496.021 8.169 0 3.374-.026 8.083-.063 10.914.278-.138 8.153-6.813 14.743-14.998 14.743-8.186 0-14.862-6.59-14.999-14.743zm160.387 164.741c-6.68-.027-12.522-4.633-14.265-11.083-.015-.105.036-.076-6.949-34.525-3.26-16.3-9.55-31.572-18.175-45.142v-44.249c0-8.284-6.716-15-15-15s-15 6.716-15 15v11.076c-10.954-8.563-23.238-15.297-36.398-19.724 3.441-6.357 5.398-13.63 5.398-21.352 0-8.942-2.681-16.137-7.969-21.384-8.895-8.826-21.235-8.679-33.181-8.586-2.52.02-5.181.02-7.7 0-11.94-.093-24.286-.239-33.181 8.586-5.288 5.247-7.969 12.441-7.969 21.384 0 7.748 1.969 15.044 5.431 21.417-12.693 4.248-24.536 10.469-35.431 18.643v-10.059c0-8.284-6.716-15-15-15s-15 6.716-15 15v42.241c-8.332 12.96-14.245 27.499-17.359 43.069-10.471 51.703-7.013 34.306-7.679 37.978-2.072 6.479-9.42 11.902-16.231 11.683-26.934-.873-48.272-22.602-48.68-49.51.628-27.574 6.896-54.109 18.633-78.871 11.167-23.56 12.485-48.717 11.784-69.264 17.674-16.829 34.819-38.221 46.159-57.863 8.592-14.882 13.637-28.15 15.229-40.096 3.474-1.132 7.001-2.045 10.557-2.712 30.612-5.746 60.451 3.496 81.873 25.357 2.821 2.879 6.683 4.501 10.713 4.501 4.031 0 7.892-1.622 10.713-4.501 21.205-21.639 52.188-31.118 82.875-25.357 3.555.667 7.082 1.58 10.555 2.712 1.592 11.946 6.637 25.214 15.229 40.095 11.467 19.862 28.63 41.432 46.146 58.242-.672 20.476.698 45.468 11.796 68.885 11.732 24.752 18.015 51.308 18.676 78.936-.484 27.014-22.478 49.638-50.6 49.473zm78.391-194.694c-2.751.133-13.948-2.74-33.624-20.624-16.776-15.248-33.943-36.405-44.804-55.216-15.919-27.574-17.023-42.134 3.481-53.971 4.683-2.703 9.827-5.674 15.785-5.674 8.769 0 19.298 6.439 32.696 29.645 10.86 18.81 20.599 44.256 25.416 66.408 5.651 25.984 2.534 37.132 1.05 39.432z"/></g></svg>