<svg id="Capa_1" enable-background="new 0 0 512.002 512.002" height="512" viewBox="0 0 512.002 512.002" width="512" xmlns="http://www.w3.org/2000/svg"><g><path d="m39.85 114.628c-.007.002-.012.004-.016.006.003-.002.008-.003.016-.006z"/><path d="m482.335 86.413-106.881-38.537c-11.614-4.227-24.509-1.07-32.855 8.04-.632.69-1.216 1.41-1.775 2.143-25.515-7.997-53.967-12.058-84.83-12.058s-59.315 4.062-84.829 12.058c-.559-.733-1.143-1.453-1.775-2.143-8.348-9.11-21.244-12.266-32.813-8.055l-106.965 38.568c-23.317 8.486-35.382 34.36-26.896 57.677.027.073 21.604 56.601 21.604 56.601 2.091 5.479 7.053 9.022 12.527 9.571-3.881 18.965-5.853 39.28-5.853 60.723 0 140.255 83.048 195 225 195 140.381 0 226-53.462 226-195 0-21.444-1.971-41.758-5.852-60.723 5.552-.557 10.573-4.196 12.609-9.79l20.521-56.381c8.478-23.295-3.429-49.138-26.937-57.694zm-451.461 47.341c-2.764-7.748 1.256-16.315 8.954-19.118-.002.001-.002.001 0 0h.001c.069-.025.103-.037.116-.042-.02.007-.068.024-.097.035.493-.177 9.603-3.461 107.173-38.631.142.041.385.307.412.423-.002.021-.022.107-.088.248-19.975 42.837-54.474 78.485-100.454 99.05zm225.12 302.247c-124.905 0-195-41.595-195-165 0-26.875 3.366-51.605 9.992-73.631 16.979-8.796 32.772-19.656 47.201-32.468l44.615 16.239c23.372 8.506 49.169-3.522 57.677-26.896 2.833-7.785-1.181-16.392-8.966-19.226-7.783-2.833-16.392 1.18-19.226 8.965-2.835 7.789-11.435 11.802-19.225 8.965l-31.834-11.586c15.127-17.826 27.674-38.799 33.709-52.971 23.869-8.216 51.086-12.391 81.056-12.391 29.969 0 57.186 4.175 81.056 12.391 6.066 14.241 18.686 35.046 33.979 52.873l-32.104 11.685c-7.775 2.829-16.398-1.193-19.226-8.965-2.835-7.785-11.441-11.799-19.227-8.965-7.784 2.833-11.798 11.441-8.965 19.226 8.487 23.315 34.36 35.383 57.677 26.895l45.055-16.398c14.456 12.714 30.504 23.71 47.764 32.632 6.625 22.024 9.99 46.752 9.99 73.627.002 123.62-71.393 164.999-195.998 164.999zm225.087-302.156-15.202 41.769c-44.57-20.03-80.978-55.5-101.236-98.947-.062-.132-.083-.213-.088-.217 0-.002 0-.004 0-.006.031-.145.271-.407.384-.444.162.003-4.962-1.795 107.179 38.619 7.789 2.836 11.801 11.435 8.963 19.226z"/><path d="m39.829 114.635c.001 0 .003-.001.005-.002-.003.002-.004.002-.005.002z"/><path d="m309.027 239.181c-14.165-14.166-32.999-21.967-53.033-21.967-20.033 0-38.868 7.802-53.033 21.967-14.763 14.763-55.721 55.722-64.393 64.393-23.394 23.394-23.394 61.458 0 84.853 21.119 21.119 54.192 23.166 77.636 6.153 11.845 7.426 25.581 11.42 39.79 11.42 14.208 0 27.943-3.994 39.787-11.418 23.292 16.958 56.334 15.15 77.639-6.156 23.448-23.446 23.452-61.402.001-84.853-25.879-25.878-59.696-59.694-64.394-64.392zm-53.033 8.033c9.036 0 17.665 2.647 25.004 7.571l-25.003 25.003-25.003-25.003c7.337-4.925 15.966-7.571 25.002-7.571zm-53.786 120c-11.697 11.697-30.729 11.697-42.426 0s-11.697-30.73 0-42.427l49.393-49.394 31.82 31.82v21.213zm53.786 8.787c-5.849 0-11.561-1.135-16.867-3.28l16.867-16.867 16.867 16.867c-5.306 2.145-11.018 3.28-16.867 3.28zm96.213-8.787c-11.724 11.724-30.701 11.725-42.426 0l-38.787-38.787v-21.213l31.82-31.82 49.394 49.393c11.724 11.725 11.725 30.701-.001 42.427z"/><path d="m255.994 196.001c8.284 0 15-6.716 15-15v-30c0-8.284-6.716-15-15-15s-15 6.716-15 15v30c0 8.284 6.716 15 15 15z"/><circle cx="165.994" cy="211.001" r="15"/><circle cx="345.994" cy="211.001" r="15"/></g></svg>