<svg id="Capa_1" enable-background="new 0 0 512 512" height="512" viewBox="0 0 512 512" width="512" xmlns="http://www.w3.org/2000/svg"><g><circle cx="166" cy="256" r="15"/><circle cx="346" cy="256" r="15"/><path d="m92.339 270.13c6.054 31.625 32.032 56.262 64.322 60.292-2.65 7.177-4.697 15.188-5.393 23.881-2.402 30.049 15.626 56.786 43.089 64.416 13.932 20.067 36.957 32.281 61.643 32.281s47.711-12.214 61.643-32.281c27.464-7.63 45.491-34.367 43.089-64.416-.694-8.692-2.742-16.705-5.393-23.881 32.289-4.029 58.267-28.666 64.322-60.292 52.019-6.66 92.339-50.818 92.339-104.13v-90c0-8.284-6.716-15-15-15-59.887 0-114.746 31.976-144.036 82.705-28.002-14.721-61.809-22.705-96.964-22.705s-68.962 7.984-96.964 22.705c-29.29-50.729-84.149-82.705-144.036-82.705-8.284 0-15 6.716-15 15v90c0 53.312 40.32 97.47 92.339 104.13zm163.661 150.87c-7.372 0-14.49-1.832-20.82-5.141 7.917-3.474 15.039-8.625 20.82-15.159 5.781 6.534 12.902 11.686 20.82 15.159-6.331 3.309-13.448 5.141-20.82 5.141zm-14.998-74.743c2.831-.341 7.538-.304 10.914-.278 2.672.021 5.496.021 8.168 0 3.373-.027 8.083-.063 10.914.278-.138 8.153-6.812 14.743-14.998 14.743s-14.86-6.59-14.998-14.743zm240.998-231.045v50.788c0 36.029-25.881 66.197-60.258 73.372 4.135-47.081 25.678-91.234 60.258-124.16zm-342.742 55.628c3.779 8.431 14.24 11.488 21.969 6.371 25.528-16.902 59.186-26.211 94.773-26.211s69.245 9.309 94.773 26.211c7.706 5.1 18.177 2.087 21.969-6.371 16.322-36.409 47.887-63.131 85.342-74.2-42.531 42.125-67.084 99.372-67.084 159.36 0 24.813-20.187 45-45 45-4.03 0-8.02-.53-11.858-1.575-5.964-1.624-12.324.581-16.003 5.557-3.678 4.976-3.923 11.699-.617 16.93 8.334 13.187 12.438 23.913 13.307 34.781 1.296 16.213-7.829 29.941-22.191 33.385-11.262 2.701-20.931-.632-27.63-6.687 12.046-8.083 19.992-21.825 19.992-37.391 0-8.942-2.681-16.137-7.969-21.384-8.895-8.826-21.236-8.679-33.181-8.586-2.52.02-5.182.02-7.701 0-11.933-.092-24.285-.239-33.181 8.586-5.287 5.247-7.968 12.442-7.968 21.384 0 15.565 7.946 29.308 19.992 37.391-6.7 6.055-16.37 9.389-27.629 6.687-14.362-3.444-23.487-17.172-22.191-33.384.869-10.869 4.974-21.596 13.307-34.782 3.306-5.23 3.061-11.954-.617-16.93-3.677-4.976-10.032-7.182-16.003-5.557-3.839 1.045-7.829 1.575-11.859 1.575-24.813 0-45-20.187-45-45 0-59.988-24.553-117.235-67.084-159.36 37.455 11.069 69.02 37.791 85.342 74.2zm-109.258-55.628c34.579 32.927 56.123 77.08 60.258 124.16-34.377-7.175-60.258-37.343-60.258-73.372z"/></g></svg>