<svg id="Capa_1" enable-background="new 0 0 512 512" height="512" viewBox="0 0 512 512" width="512" xmlns="http://www.w3.org/2000/svg"><g><circle cx="166" cy="196" r="15"/><circle cx="346" cy="196" r="15"/><path d="m75.154 361.539c19.182-4.794 32.718-20.458 34.486-39.906l3.368-37.048c4.582 18.882 7.992 38.346 7.992 61.415v90c0 24.813 20.187 45 45 45s45-20.187 45-45v-4.879c13.986-6.633 29.378-10.121 45-10.121s31.014 3.488 45 10.121v4.879c0 24.813 20.187 45 45 45s45-20.187 45-45c0-10.534 0-75.727 0-90 0-23.069 3.41-42.533 7.991-61.414l3.368 37.048c1.761 19.367 15.438 35.016 34.843 39.866 18.996 4.748 37.691-2.606 47.872-18.128 17.866-27.241 26.926-56.637 26.926-87.372 0-73.448-52.672-131.933-117.85-164.018-28.623-35.64-78.597-60.982-138.15-60.982-59.567 0-109.533 25.35-138.15 60.982-65.156 32.073-117.85 90.552-117.85 164.018 0 29.724 9.396 59.12 27.926 87.371 10.165 15.5 28.63 22.817 47.228 18.168zm406.846-105.539c0 24.789-7.405 48.65-22.012 70.918-4.891 7.458-13.109 6.076-15.513 5.477-5.448-1.362-11.524-5.617-12.239-13.477l-12.046-132.503c.519-6.539.81-13.324.81-20.415 0-8.218-.889-16.314-2.618-24.219 40.476 30.567 63.618 71.212 63.618 114.219zm-301 150v30c0 8.271-6.729 15-15 15s-15-6.729-15-15v-60c0-38.885 21.247-72.9 52.74-91.047l36.356 36.356c-3.045 9.261-13.377 18.71-24.217 28.62-16.349 14.946-34.879 31.887-34.879 56.071zm53.443-132.771c6.96-1.458 14.17-2.229 21.557-2.229s14.597.771 21.557 2.229l-21.557 21.558zm21.557 117.771c-14.69 0-29.231 2.401-43.027 7.029 3.959-8.41 13.344-16.996 23.148-25.959 6.739-6.161 13.849-12.661 19.879-19.867 6.03 7.207 13.14 13.706 19.879 19.867 9.804 8.963 19.189 17.548 23.148 25.959-13.796-4.628-28.337-7.029-43.027-7.029zm105 45c0 8.271-6.729 15-15 15s-15-6.729-15-15v-30c0-24.184-18.53-41.125-34.879-56.071-10.84-9.91-21.172-19.359-24.217-28.62l36.356-36.356c31.493 18.147 52.74 52.162 52.74 91.047zm-105-375c65.435 0 135 41.608 135 105 0 33.133-7.028 58.834-14.469 86.043-3.958 14.473-7.976 29.214-10.938 45.22-24.913-34.579-65.18-56.263-109.593-56.263-44.041 0-84.445 21.357-109.594 56.263-2.962-16.006-6.979-30.746-10.938-45.22-7.44-27.209-14.468-52.91-14.468-86.043 0-51.971 53.38-105 135-105zm-162.382 80.781c-1.729 7.905-2.618 16.001-2.618 24.219 0 7.091.291 13.876.809 20.414l-12.045 132.503c-.724 7.957-6.612 12.2-11.883 13.517-2.906.727-10.173 1.644-14.869-5.516-15.27-23.28-23.012-47.14-23.012-70.918 0-43.007 23.142-83.652 63.618-114.219z"/><path d="m196 151c8.271 0 15 6.729 15 15v30c0 8.284 6.716 15 15 15s15-6.716 15-15v-30c0-24.813-20.187-45-45-45-8.284 0-15 6.716-15 15s6.716 15 15 15z"/><path d="m286 211c8.284 0 15-6.716 15-15v-30c0-8.271 6.729-15 15-15 8.284 0 15-6.716 15-15s-6.716-15-15-15c-24.813 0-45 20.187-45 45v30c0 8.284 6.716 15 15 15z"/></g></svg>