<svg id="Capa_1" enable-background="new 0 0 512 512" height="512" viewBox="0 0 512 512" width="512" xmlns="http://www.w3.org/2000/svg"><g><circle cx="196" cy="232.927" r="15"/><circle cx="316" cy="232.927" r="15"/><path d="m256 6.927c-72.803 0-134.736 39.068-156.582 93.102-61.47 66.409-99.418 189.553-99.418 266.827 0 46.108 14.12 84.604 41.968 114.42 18.249 19.539 44.727 27.7 70.779 22.018 26.197-5.714 46.888-24.28 55.338-49.63l11.613-34.572c4.504 2.766 9.404 4.942 14.586 6.448 13.924 20.13 36.984 32.387 61.715 32.387s47.791-12.257 61.715-32.387c5.183-1.506 10.082-3.683 14.586-6.448l11.602 34.538c8.437 25.309 29.255 43.862 55.689 49.628 26.778 5.841 53.394-2.66 71.44-21.982 27.186-29.106 40.969-67.603 40.969-114.42 0-77.273-37.948-200.418-99.418-266.827-21.846-54.034-83.779-93.102-156.582-93.102zm0 30c77.475 0 135 50.531 135 106 0 14.183-3.664 27.956-10.89 40.935-1.003 1.801-1.993 3.686-2.978 5.608-2.663-3.734-5.677-7.254-9.04-10.501-14.053-13.569-32.553-21.042-52.092-21.042-24.508 0-46.305 11.818-60 30.052-13.695-18.234-35.492-30.052-60-30.052-19.539 0-38.039 7.473-52.092 21.042-3.363 3.247-6.377 6.767-9.04 10.501-.985-1.922-1.975-3.807-2.978-5.608-7.226-12.98-10.89-26.752-10.89-40.935 0-52.083 53.604-106 135-106zm-116.364 407.216c-5.082 15.247-17.524 26.402-33.282 29.839-15.685 3.421-31.557-1.508-42.461-13.184-22.807-24.417-33.893-55.146-33.893-93.942 0-58.211 24.035-144.932 62.26-207.248 2.028 13.422 6.508 26.434 13.418 38.847 35.315 63.431 45.331 170.495 45.35 170.595.161 8.685 2.168 16.923 5.658 24.337zm116.364-16.216c-7.359 0-14.463-1.824-20.785-5.121 7.932-3.506 15.036-8.69 20.785-15.196 5.75 6.506 12.853 11.691 20.785 15.196-6.321 3.296-13.426 5.121-20.785 5.121zm-14.998-104.743c2.83-.341 7.539-.304 10.914-.278 2.673.021 5.496.021 8.169 0 3.375-.027 8.083-.063 10.914.278-.138 8.153-6.813 14.743-14.998 14.743s-14.861-6.59-14.999-14.743zm90.003 44.65c0 .031-.005.062-.005.093 0 16.542-13.458 30-30 30-22.503 0-27.597-19.789-30-23.405v-9.175c17.459-6.192 30-22.865 30-42.42 0-8.942-2.681-16.137-7.969-21.384-8.895-8.826-21.237-8.678-33.181-8.586-2.52.02-5.181.02-7.7 0-11.937-.092-24.286-.239-33.181 8.586-5.288 5.247-7.969 12.441-7.969 21.384 0 19.555 12.541 36.228 30 42.42v9.175c-1.934 2.91-7.313 23.405-30 23.405-16.091 0-29.904-12.872-30.005-30.093-.046-6.142-6.195-71.566-29.787-139.218 2.16-23.018 21.354-40.69 44.791-40.69 24.813 0 45 20.187 45 45 0 8.284 6.716 15 15 15s15-6.716 15-15c0-24.813 20.187-45 45-45 23.438 0 42.631 17.672 44.791 40.69-18.396 52.758-29.643 120.117-29.785 139.218zm150.995-.978c0 39.516-10.759 70.245-32.892 93.943-10.958 11.733-27.08 16.648-43.122 13.148-15.995-3.489-28.564-14.63-33.633-29.837l-17.039-50.723c3.49-7.414 5.497-15.652 5.658-24.337.374-1.988 8.972-105.253 45.35-170.595 6.911-12.412 11.391-25.425 13.419-38.847 38.224 62.315 62.259 149.036 62.259 207.248z"/></g></svg>