<svg xmlns="http://www.w3.org/2000/svg" viewBox="0 0 512 450"><defs><style>.\32 8af02be-44a0-4bbb-93c7-fa67f47cdc45{fill:#52d341;}</style></defs><title>Recurso 5</title><g id="5bb6234d-b9a0-49fd-8078-2fe7930d79fa" data-name="Capa 2"><g id="64d32417-80d8-4da5-9e9f-016c23d8aa11" data-name="Capa 1"><circle class="28af02be-44a0-4bbb-93c7-fa67f47cdc45" cx="166" cy="165" r="15"/><circle class="28af02be-44a0-4bbb-93c7-fa67f47cdc45" cx="346" cy="165" r="15"/><path class="28af02be-44a0-4bbb-93c7-fa67f47cdc45" d="M75.15,330.54c19.18-4.79,32.72-20.46,34.49-39.91l3.37-37c4.58,18.88,8,38.35,8,61.42v90a45,45,0,0,0,90,0v-4.88a105.1,105.1,0,0,1,90,0V405a45,45,0,0,0,90,0V315c0-23.07,3.41-42.53,8-61.41l3.37,37c1.76,19.37,15.44,35,34.84,39.87,19,4.75,37.69-2.61,47.87-18.13C502.94,285.13,512,255.74,512,225c0-73.45-52.67-131.93-117.85-164C365.53,25.34,315.55,0,256,0S146.47,25.35,117.85,61C52.69,93.05,0,151.53,0,225c0,29.72,9.4,59.12,27.93,87.37C38.09,327.87,56.56,335.19,75.15,330.54ZM482,225c0,24.79-7.4,48.65-22,70.92-4.89,7.46-13.11,6.08-15.51,5.48C439,300,433,295.78,432.24,287.92l-12-132.5c.52-6.54.81-13.32.81-20.41a113.19,113.19,0,0,0-2.62-24.22C458.86,141.35,482,182,482,225ZM181,375v30a15,15,0,0,1-30,0V345a105.07,105.07,0,0,1,52.74-91l36.36,36.36c-3,9.26-13.38,18.71-24.22,28.62C199.53,333.88,181,350.82,181,375Zm53.44-132.77a105.35,105.35,0,0,1,43.11,0L256,263.79ZM256,360a135.35,135.35,0,0,0-43,7c4-8.41,13.34-17,23.15-26,6.74-6.16,13.85-12.66,19.88-19.87,6,7.21,13.14,13.71,19.88,19.87,9.8,9,19.19,17.55,23.15,26A135.35,135.35,0,0,0,256,360Zm105,45a15,15,0,0,1-30,0V375c0-24.18-18.53-41.12-34.88-56.07-10.84-9.91-21.17-19.36-24.22-28.62L308.26,254A105.07,105.07,0,0,1,361,345ZM256,30c65.43,0,135,41.61,135,105,0,33.13-7,58.83-14.47,86-4,14.47-8,29.21-10.94,45.22a134.87,134.87,0,0,0-219.19,0c-3-16-7-30.75-10.94-45.22C128,193.83,121,168.13,121,135,121,83,174.38,30,256,30ZM93.62,110.78A113.19,113.19,0,0,0,91,135c0,7.09.29,13.88.81,20.41l-12,132.5c-.72,8-6.61,12.2-11.88,13.52-2.91.73-10.17,1.64-14.87-5.52C37.74,272.64,30,248.78,30,225,30,182,53.14,141.35,93.62,110.78Z"/><path class="28af02be-44a0-4bbb-93c7-fa67f47cdc45" d="M196,120a15,15,0,0,1,15,15v30a15,15,0,0,0,30,0V135a45.05,45.05,0,0,0-45-45,15,15,0,1,0,0,30Z"/><path class="28af02be-44a0-4bbb-93c7-fa67f47cdc45" d="M286,180a15,15,0,0,0,15-15V135a15,15,0,0,1,15-15,15,15,0,1,0,0-30,45.05,45.05,0,0,0-45,45v30A15,15,0,0,0,286,180Z"/></g></g></svg>