<svg xmlns="http://www.w3.org/2000/svg" viewBox="0 0 512 449.99"><defs><style>.\33 adc459f-4a6c-4859-bc7a-7d47c1677835{fill:#ff689b;}</style></defs><title>Recurso 1</title><g id="b68673fc-6fb2-4001-8659-f4a077f69386" data-name="Capa 2"><g id="a52ddb9d-f22b-48b0-852a-d0c2cf2e4e45" data-name="Capa 1"><path class="3adc459f-4a6c-4859-bc7a-7d47c1677835" d="M448.49,1A75,75,0,0,0,363.3,56.65a512,512,0,0,0-214.6,0A75,75,0,0,0,63.51,1C27.31,6.9,0,40.08,0,78.2c0,47.83,22.79,94,61.16,124.33,1.68,40.71,16.7,72.77,31.26,103.82,14.7,31.35,28.58,61,28.58,98.63a15,15,0,0,0,15,15h3.21c1.6,0,3.18-.07,4.75-.17A60.38,60.38,0,0,0,196,450c17.08,0,29.52-10.2,39.51-18.4C243.1,425.36,249.65,420,256,420s12.9,5.37,20.49,11.6c10,8.2,22.43,18.4,39.51,18.4a60.38,60.38,0,0,0,52-30.17c1.57.1,3.15.17,4.75.17H376a15,15,0,0,0,15-15c0-37.66,13.88-67.28,28.58-98.63,14.56-31.05,29.58-63.11,31.26-103.82C489.21,172.2,512,126,512,78.2,512,40.08,484.69,6.9,448.49,1ZM30,78.2C30,55,46.84,34.11,68.33,30.62a45,45,0,0,1,52.54,41.1L71,171.44C45.11,147,30,113.13,30,78.2ZM153.1,387.61a14.89,14.89,0,0,0-2.1.12V315a105.13,105.13,0,0,1,59.19-94.47L241,260.14v11.34c-35.43,7.13-60,40.39-60,76.72A41.86,41.86,0,0,1,153.1,387.61Zm102-158.26-14.21-18.27a105,105,0,0,1,26.69-.46Zm25.82,78.13a45,45,0,0,1-49.53.14A41.7,41.7,0,0,1,255.94,300H256A44.33,44.33,0,0,1,280.88,307.48ZM316,420c-6.35,0-12.9-5.37-20.49-11.6-10-8.2-22.43-18.4-39.51-18.4s-29.52,10.2-39.51,18.4C208.9,414.62,202.35,420,196,420a30.12,30.12,0,0,1-21.62-9.24A71.83,71.83,0,0,0,211,348.2a51.7,51.7,0,0,1,2.64-16.3,75.1,75.1,0,0,0,85.29-.38A45,45,0,0,1,301,345v3.21a71.83,71.83,0,0,0,36.62,62.55A30.12,30.12,0,0,1,316,420Zm45-32.26a14.86,14.86,0,0,0-2.1-.12A41.86,41.86,0,0,1,331,348.2V345a74.94,74.94,0,0,0-60-73.44v-12l27.14-40.71A105.15,105.15,0,0,1,361,315Zm31.42-94.11-2.4,5.12A135.21,135.21,0,0,0,256,180c-68.94,0-126,52-134,118.76l-2.4-5.12C105.34,263.24,91.86,234.48,91,198.45L146.3,87.93a481.59,481.59,0,0,1,219.4,0L421,198.45c-.82,36-14.3,64.78-28.54,95.17ZM441,171.44,391.13,71.72a45,45,0,0,1,52.54-41.1C465.16,34.11,482,55,482,78.2,482,113.13,466.89,147,441,171.44Z"/><circle class="3adc459f-4a6c-4859-bc7a-7d47c1677835" cx="136" cy="194.99" r="15"/><circle class="3adc459f-4a6c-4859-bc7a-7d47c1677835" cx="376" cy="194.99" r="15"/></g></g></svg>