<svg xmlns="http://www.w3.org/2000/svg" viewBox="0 0 512 390"><defs><style>.\32 401468e-8a78-43a4-98d4-54579de98b5f{fill:#ebc418;}</style></defs><title>Recurso 4</title><g id="a6976742-f1e3-4c20-81cd-bc92c0711488" data-name="Capa 2"><g id="2a9e974c-5e54-4e03-9b5c-f1084707dfa7" data-name="Capa 1"><circle class="2401468e-8a78-43a4-98d4-54579de98b5f" cx="166" cy="195" r="15"/><circle class="2401468e-8a78-43a4-98d4-54579de98b5f" cx="346" cy="195" r="15"/><path class="2401468e-8a78-43a4-98d4-54579de98b5f" d="M92.34,209.13a75.18,75.18,0,0,0,64.32,60.29,89.53,89.53,0,0,0-5.39,23.88c-2.4,30,15.63,56.79,43.09,64.42a75,75,0,0,0,123.29,0c27.46-7.63,45.49-34.37,43.09-64.42a89.41,89.41,0,0,0-5.39-23.88,75.18,75.18,0,0,0,64.32-60.29C471.68,202.47,512,158.31,512,105V15A15,15,0,0,0,497,0C437.11,0,382.25,32,353,82.71,325,68,291.15,60,256,60s-69,8-97,22.71C129.75,32,74.89,0,15,0A15,15,0,0,0,0,15v90c0,53.31,40.32,97.47,92.34,104.13ZM256,360a44.92,44.92,0,0,1-20.82-5.14A60,60,0,0,0,256,339.7a59.93,59.93,0,0,0,20.82,15.16A44.93,44.93,0,0,1,256,360Zm-15-74.74a104.28,104.28,0,0,1,10.91-.28c2.67,0,5.5,0,8.17,0a104,104,0,0,1,10.91.28,15,15,0,0,1-30,0Zm241-231V105c0,36-25.88,66.2-60.26,73.37A195.42,195.42,0,0,1,482,54.21ZM139.26,109.84a15,15,0,0,0,22,6.37C186.75,99.31,220.41,90,256,90s69.24,9.31,94.77,26.21a15,15,0,0,0,22-6.37,135.41,135.41,0,0,1,85.34-74.2C415.55,77.77,391,135,391,195a45,45,0,0,1-56.86,43.42,15,15,0,0,0-16.62,22.49c8.33,13.19,12.44,23.91,13.31,34.78,1.3,16.21-7.83,29.94-22.19,33.39-11.26,2.7-20.93-.63-27.63-6.69A45,45,0,0,0,301,285c0-8.94-2.68-16.14-8-21.38-8.89-8.83-21.24-8.68-33.18-8.59-2.52,0-5.18,0-7.7,0-11.93-.09-24.29-.24-33.18,8.59-5.29,5.25-8,12.44-8,21.38a45,45,0,0,0,20,37.39c-6.7,6.05-16.37,9.39-27.63,6.69-14.36-3.44-23.49-17.17-22.19-33.38.87-10.87,5-21.6,13.31-34.78a15,15,0,0,0-16.62-22.49A45.05,45.05,0,0,1,121,195c0-60-24.55-117.24-67.08-159.36a135.41,135.41,0,0,1,85.34,74.2ZM30,54.21A195.43,195.43,0,0,1,90.26,178.37C55.88,171.2,30,141,30,105Z"/></g></g></svg>