<svg xmlns="http://www.w3.org/2000/svg" viewBox="0 0 512 420"><defs><style>.\37 c10b2af-8cba-446f-8dd4-db7eef04ea1a{fill:#d6ff22;}</style></defs><title>Recurso 3</title><g id="d3843ed3-aaff-4dc1-8f18-6c8b61df670b" data-name="Capa 2"><g id="3e029b23-efd4-4dc2-b6b7-bdcd41fc0b0c" data-name="Capa 1"><path class="7c10b2af-8cba-446f-8dd4-db7eef04ea1a" d="M39.85,68.63h0Z"/><path class="7c10b2af-8cba-446f-8dd4-db7eef04ea1a" d="M482.34,40.41,375.45,1.87a30.35,30.35,0,0,0-32.86,8c-.63.69-1.22,1.41-1.77,2.14C315.31,4.06,286.86,0,256,0s-59.32,4.06-84.83,12.06c-.56-.73-1.14-1.45-1.77-2.14a30.34,30.34,0,0,0-32.81-8.06l-107,38.57A45.05,45.05,0,0,0,2.72,98.1l21.6,56.6a15,15,0,0,0,12.53,9.57A303.07,303.07,0,0,0,31,225c0,140.26,83,195,225,195,140.38,0,226-53.46,226-195a303.07,303.07,0,0,0-5.85-60.72,15,15,0,0,0,12.61-9.79l20.52-56.38a45,45,0,0,0-26.94-57.69ZM30.87,87.75a15,15,0,0,1,9-19.12h0l.12,0-.1,0L147,30a.89.89,0,0,1,.41.42,1,1,0,0,1-.09.25,200.8,200.8,0,0,1-100.45,99ZM256,390c-124.9,0-195-41.6-195-165,0-26.87,3.37-51.6,10-73.63a231,231,0,0,0,47.2-32.47l44.62,16.24a45,45,0,0,0,57.68-26.9A15,15,0,0,0,192.29,98a15,15,0,0,1-19.23,9L141.23,95.36c15.13-17.83,27.67-38.8,33.71-53C198.81,34.18,226,30,256,30S313.18,34.18,337,42.39c6.07,14.24,18.69,35,34,52.87l-32.1,11.68a15,15,0,0,1-19.23-9,15,15,0,0,0-28.19,10.26,45.05,45.05,0,0,0,57.68,26.9l45.05-16.4A237.56,237.56,0,0,0,442,151.37c6.63,22,10,46.75,10,73.63,0,123.62-71.39,165-196,165ZM481.08,87.84l-15.2,41.77c-44.57-20-81-55.5-101.24-98.95-.06-.13-.08-.21-.09-.22h0a.89.89,0,0,1,.38-.44c.16,0-5-1.79,107.18,38.62A15,15,0,0,1,481.08,87.84Z"/><path class="7c10b2af-8cba-446f-8dd4-db7eef04ea1a" d="M39.83,68.63h0Z"/><path class="7c10b2af-8cba-446f-8dd4-db7eef04ea1a" d="M309,193.18a75,75,0,0,0-106.07,0l-64.39,64.39a60,60,0,0,0,77.64,91,75,75,0,0,0,79.58,0,60,60,0,0,0,77.64-91L309,193.18Zm-53,8a44.69,44.69,0,0,1,25,7.57l-25,25-25-25a44.67,44.67,0,0,1,25-7.57Zm-53.79,120a30,30,0,0,1-42.43-42.43l49.39-49.39L241,261.21v21.21ZM256,330a45,45,0,0,1-16.87-3.28L256,309.85l16.87,16.87A45,45,0,0,1,256,330Zm96.21-8.79a30,30,0,0,1-42.43,0L271,282.43V261.21l31.82-31.82,49.39,49.39a30,30,0,0,1,0,42.43Z"/><path class="7c10b2af-8cba-446f-8dd4-db7eef04ea1a" d="M256,150a15,15,0,0,0,15-15V105a15,15,0,0,0-30,0v30a15,15,0,0,0,15,15Z"/><circle class="7c10b2af-8cba-446f-8dd4-db7eef04ea1a" cx="165.99" cy="165" r="15"/><circle class="7c10b2af-8cba-446f-8dd4-db7eef04ea1a" cx="345.99" cy="165" r="15"/></g></g></svg>