<svg xmlns="http://www.w3.org/2000/svg" viewBox="0 0 512 498.15"><defs><style>.\39 6269b9e-a504-4578-b842-bbfd1fe7004c{fill:#4680ff;}</style></defs><title>Recurso 6</title><g id="4c41860a-fc7e-438f-99fd-c7d055e6cc33" data-name="Capa 2"><g id="81d94265-e07c-4763-9b6d-9a674cda183c" data-name="Capa 1"><circle class="96269b9e-a504-4578-b842-bbfd1fe7004c" cx="196" cy="226" r="15"/><circle class="96269b9e-a504-4578-b842-bbfd1fe7004c" cx="316" cy="226" r="15"/><path class="96269b9e-a504-4578-b842-bbfd1fe7004c" d="M256,0C183.2,0,121.26,39.07,99.42,93.1,37.95,159.51,0,282.66,0,359.93,0,406,14.12,444.53,42,474.35a75.18,75.18,0,0,0,126.12-27.61l11.61-34.57a59.69,59.69,0,0,0,14.59,6.45,75,75,0,0,0,123.43,0,59.72,59.72,0,0,0,14.59-6.45l11.6,34.54c8.44,25.31,29.26,43.86,55.69,49.63,26.78,5.84,53.39-2.66,71.44-22,27.19-29.11,41-67.6,41-114.42,0-77.27-37.95-200.42-99.42-266.83C390.74,39.07,328.8,0,256,0Zm0,30c77.48,0,135,50.53,135,106a83.37,83.37,0,0,1-10.89,40.93c-1,1.8-2,3.69-3,5.61a75.61,75.61,0,0,0-9-10.5,75,75,0,0,0-112.09,9,75,75,0,0,0-121.13,1.49c-1-1.92-2-3.81-3-5.61A83.37,83.37,0,0,1,121,136c0-52.08,53.6-106,135-106ZM139.64,437.22a45.18,45.18,0,0,1-75.74,16.65C41.09,429.45,30,398.73,30,359.93,30,301.72,54,215,92.26,152.68a114.8,114.8,0,0,0,13.42,38.85C141,255,151,362,151,362.12a59.6,59.6,0,0,0,5.66,24.34ZM256,421a44.93,44.93,0,0,1-20.79-5.12A60.26,60.26,0,0,0,256,400.68a60.25,60.25,0,0,0,20.79,15.2A44.94,44.94,0,0,1,256,421ZM241,316.26a104.28,104.28,0,0,1,10.91-.28c2.67,0,5.5,0,8.17,0a104,104,0,0,1,10.91.28,15,15,0,0,1-30,0Zm90,44.65s0,.06,0,.09a30,30,0,0,1-30,30c-22.5,0-27.6-19.79-30-23.4v-9.17A45.07,45.07,0,0,0,301,316c0-8.94-2.68-16.14-8-21.38-8.89-8.83-21.24-8.68-33.18-8.59-2.52,0-5.18,0-7.7,0-11.94-.09-24.29-.24-33.18,8.59-5.29,5.25-8,12.44-8,21.38a45.07,45.07,0,0,0,30,42.42v9.17c-1.93,2.91-7.31,23.4-30,23.4a30,30,0,0,1-30-30.09c0-6.14-6.2-71.57-29.79-139.22A45,45,0,0,1,241,226a15,15,0,0,0,30,0,45,45,0,0,1,89.79-4.31c-18.4,52.76-29.64,120.12-29.79,139.22Zm151-1c0,39.52-10.76,70.24-32.89,93.94a46,46,0,0,1-76.76-16.69l-17-50.72A59.6,59.6,0,0,0,361,362.12c.37-2,9-105.25,45.35-170.6a114.77,114.77,0,0,0,13.42-38.85C458,215,482,301.72,482,359.93Z"/></g></g></svg>